Chun feng chen zui de ye wan AKA Spring Fever (2009)
Lou Ye

Hired to spy on a philandering husband, Luo Haitao soon becomes entangled in a clandestine affair with the other man. Along with Luo's girlfriend, they succumb to the delirium of drunken nights, but how long can their tryst last?
 
http://www.imdb.com/title/tt1422119/

Source: DVD Rip

General
Complete name                            : Chun feng chen zui de ye wan AKA Spring Fever (2009)Spring fever.2009.XviD.avi
Format                                   : AVI
Format/Info                              : Audio Video Interleave
File size                                : 1.17 GiB
Duration                                 : 1h 45mn
Overall bit rate                         : 1 588 Kbps
Writing application                      : VirtualDubMod 1.5.10.2 (build 2542/release)
Writing library                          : VirtualDubMod build 2542/release

Video
ID                                       : 0
Format                                   : MPEG-4 Visual
Format profile                           : Advanced Simple@L5
Format settings, BVOP                    : 2
Format settings, QPel                    : No
Format settings, GMC                     : No warppoints
Format settings, Matrix                  : Default (H.263)
Muxing mode                              : Packed bitstream
Codec ID                                 : XVID
Codec ID/Hint                            : XviD
Duration                                 : 1h 45mn
Bit rate                                 : 1 387 Kbps
Width                                    : 720 pixels
Height                                   : 384 pixels
Display aspect ratio                     : 1.875
Frame rate                               : 25.000 fps
Color space                              : YUV
Chroma subsampling                       : 4:2:0
Bit depth                                : 8 bits
Scan type                                : Progressive
Compression mode                         : Lossy
Bits/(Pixel*Frame)                       : 0.201
Stream size                              : 1.02 GiB (87%)
Writing library                          : XviD 1.2.1 (UTC 2008-12-04)

Audio
ID                                       : 1
Format                                   : AC-3
Format/Info                              : Audio Coding 3
Mode extension                           : CM (complete main)
Codec ID                                 : 2000
Duration                                 : 1h 45mn
Bit rate mode                            : Constant
Bit rate                                 : 192 Kbps
Channel(s)                               : 2 channels
Channel positions                        : Front: L R
Sampling rate                            : 48.0 KHz
Bit depth                                : 16 bits
Compression mode                         : Lossy
Stream size                              : 145 MiB (12%)
Alignment                                : Split accross interleaves
Interleave, duration                     : 40 ms (1.00 video frame)
Interleave, preload duration             : 500 ms

Language: Mandarin | Cantonese
Subtitles: French

Originally uploaded by goofygoober @ asiatorrents